# xmcd
#
# Track frame offsets:
#	150
#	24739
#	48304
#	68145
#	84468
#	109901
#	123403
#	160384
#	192887
#	212773
#
# Disc length: 3141 seconds
#
# Revision: 1
# Processed by: cddbd v1.5.2PL0 Copyright (c) Steve Scherf et al.
# Submitted via: audiograbber 1.83.01
#
DISCID=890c430a
DTITLE=The German Blues Project - Through The Storm
DYEAR=2012
DGENRE=Blues
TTITLE0=Pillow Blues
TTITLE1=Destination FLA
TTITLE2=Happy Without Reason
TTITLE3=Through The Storm
TTITLE4=Come Home To Me
TTITLE5=Rockin' USA
TTITLE6=Amazing - Amazing Grace
TTITLE7=CEO Blues
TTITLE8=Too Hot To Handle
TTITLE9=Same Old Blues
EXTD=
EXTT0=
EXTT1=
EXTT2=
EXTT3=
EXTT4=
EXTT5=
EXTT6=
EXTT7=
EXTT8=
EXTT9=
PLAYORDER=
